<svg id="visual" viewBox="0 0 350 900" width="350" height="900" xmlns="http://www.w3.org/2000/svg" xmlns:xlink="http://www.w3.org/1999/xlink" version="1.1"><rect x="0" y="0" width="350" height="900" fill="#FFFFFF"></rect><defs><linearGradient id="grad1_0" x1="0%" y1="0%" x2="100%" y2="100%"><stop offset="30%" stop-color="#ffffff" stop-opacity="1"></stop><stop offset="70%" stop-color="#ffffff" stop-opacity="1"></stop></linearGradient></defs><defs><linearGradient id="grad2_0" x1="0%" y1="0%" x2="100%" y2="100%"><stop offset="30%" stop-color="#ffffff" stop-opacity="1"></stop><stop offset="70%" stop-color="#ffffff" stop-opacity="1"></stop></linearGradient></defs><g transform="translate(350, 0)"><path d="M0 280C-27.2 262.6 -54.4 245.2 -73.2 225.4C-92.1 205.6 -102.5 183.3 -126.4 173.9C-150.3 164.6 -187.7 168.1 -214.4 155.8C-241.1 143.4 -257.1 115.1 -266.3 86.5C-275.5 57.9 -277.7 29 -280 0L0 0Z" fill="#fae1f1"></path></g><g transform="translate(0, 900)"><path d="M0 -280C34.7 -285.3 69.4 -290.6 86.5 -266.3C103.6 -242 103.1 -188 118.7 -163.4C134.3 -138.8 166 -143.5 182 -132.3C198 -121 198.4 -93.6 212.1 -68.9C225.8 -44.2 252.9 -22.1 280 0L0 0Z" fill="#fae1f1"></path></g></svg>